<svg xmlns="http://www.w3.org/2000/svg" viewBox="0 0 800 600" width="100%" height="100%">
  <!-- 背景 -->
  <defs>
    <linearGradient id="bg-gradient" x1="0%" y1="0%" x2="100%" y2="100%">
      <stop offset="0%" stop-color="#f6f8fa" />
      <stop offset="100%" stop-color="#e1e4e8" />
    </linearGradient>
    <linearGradient id="highlight-gradient" x1="0%" y1="0%" x2="100%" y2="100%">
      <stop offset="0%" stop-color="#0366d6" />
      <stop offset="100%" stop-color="#2188ff" />
    </linearGradient>
  </defs>
  
  <!-- 背景 -->
  <rect width="800" height="600" fill="url(#bg-gradient)" />
  
  <!-- 文档图形 -->
  <g transform="translate(100, 50)">
    <!-- 主文档 -->
    <rect x="50" y="50" width="400" height="500" rx="20" ry="20" fill="white" stroke="#e1e4e8" stroke-width="2" />
    
    <!-- 文档内容线条 -->
    <line x1="100" y1="120" x2="400" y2="120" stroke="#e1e4e8" stroke-width="10" stroke-linecap="round" />
    <line x1="100" y1="180" x2="400" y2="180" stroke="#e1e4e8" stroke-width="10" stroke-linecap="round" />
    <line x1="100" y1="240" x2="400" y2="240" stroke="#e1e4e8" stroke-width="10" stroke-linecap="round" />
    <line x1="100" y1="300" x2="300" y2="300" stroke="#e1e4e8" stroke-width="10" stroke-linecap="round" />
    
    <!-- 高亮文本部分 -->
    <rect x="100" y="350" width="300" height="60" rx="5" ry="5" fill="url(#highlight-gradient)" opacity="0.2" />
    <rect x="100" y="430" width="200" height="60" rx="5" ry="5" fill="url(#highlight-gradient)" opacity="0.2" />
  </g>
  
  <!-- 分析元素 -->
  <g transform="translate(550, 150)">
    <!-- 分析圆圈 -->
    <circle cx="100" cy="100" r="80" fill="url(#highlight-gradient)" opacity="0.8" />
    
    <!-- 分析图标 - 简化的图表 -->
    <line x1="60" y1="120" x2="80" y2="90" stroke="white" stroke-width="8" stroke-linecap="round" />
    <line x1="80" y1="90" x2="100" y2="110" stroke="white" stroke-width="8" stroke-linecap="round" />
    <line x1="100" y1="110" x2="120" y2="70" stroke="white" stroke-width="8" stroke-linecap="round" />
    <line x1="120" y1="70" x2="140" y2="100" stroke="white" stroke-width="8" stroke-linecap="round" />
  </g>
  
  <!-- 连接线 -->
  <path d="M450 250 C500 250, 500 200, 550 200" stroke="#0366d6" stroke-width="4" stroke-dasharray="10,5" fill="none" />
  
  <!-- 小装饰元素 -->
  <circle cx="500" cy="400" r="30" fill="url(#highlight-gradient)" opacity="0.5" />
  <circle cx="550" cy="350" r="15" fill="url(#highlight-gradient)" opacity="0.3" />
  <circle cx="600" cy="420" r="20" fill="url(#highlight-gradient)" opacity="0.4" />
</svg>